<svg width="539" height="38" viewBox="0 0 539 38" fill="none" xmlns="http://www.w3.org/2000/svg">
<path d="M19.3647 37.832C15.8981 37.832 12.7434 37.0173 9.90072 35.388C7.09272 33.724 4.85672 31.4707 3.19272 28.628C1.56339 25.7507 0.748719 22.5787 0.748719 19.112C0.748719 15.576 1.54605 12.3867 3.14072 9.544C4.73539 6.70133 6.91939 4.48267 9.69272 2.888C12.4661 1.25867 15.5861 0.444 19.0527 0.444C20.9247 0.444 22.7621 0.669332 24.5647 1.12C26.3674 1.57066 27.9101 2.212 29.1927 3.044L27.7887 11.104C25.2927 10.168 23.0394 9.7 21.0287 9.7C18.2554 9.7 16.1234 10.5147 14.6327 12.144C13.1421 13.7387 12.3967 16.044 12.3967 19.06C12.3967 22.0067 13.1767 24.312 14.7367 25.976C16.3314 27.6053 18.5327 28.42 21.3407 28.42C22.4154 28.42 23.4207 28.316 24.3567 28.108C25.2927 27.9 26.4367 27.5187 27.7887 26.964L29.2447 35.18C26.2287 36.948 22.9354 37.832 19.3647 37.832ZM34.1195 11.312H45.0915V16.616C45.8889 14.5707 46.9635 13.0627 48.3155 12.092C49.7022 11.0867 51.3142 10.584 53.1515 10.584L54.6595 19.06C51.3662 19.06 48.9395 19.424 47.3795 20.152C45.8542 20.8453 45.0915 21.9547 45.0915 23.48V37H34.1195V11.312ZM71.7946 37.416C68.9172 37.416 66.3519 36.844 64.0986 35.7C61.8799 34.5213 60.1466 32.9267 58.8986 30.916C57.6506 28.8707 57.0266 26.5653 57.0266 24C57.0266 21.3653 57.6679 19.0253 58.9506 16.98C60.2332 14.9347 61.9666 13.3573 64.1506 12.248C66.3346 11.1387 68.7612 10.584 71.4306 10.584C73.9959 10.584 76.1799 11.156 77.9826 12.3C79.8199 13.4093 81.1892 14.9347 82.0906 16.876C82.9919 18.7827 83.4426 20.932 83.4426 23.324C83.4426 23.948 83.4079 24.3987 83.3386 24.676L67.7386 26.704C68.1546 27.9173 68.8306 28.8013 69.7666 29.356C70.7026 29.876 71.9332 30.136 73.4586 30.136C75.8159 30.136 78.3639 29.5293 81.1026 28.316L82.4026 35.284C79.1786 36.7053 75.6426 37.416 71.7946 37.416ZM75.3826 20.152C74.8279 17.968 73.5106 16.876 71.4306 16.876C70.1826 16.876 69.1946 17.344 68.4666 18.28C67.7386 19.216 67.3572 20.4293 67.3226 21.92L75.3826 20.152ZM99.7131 37.416C97.4598 37.416 95.3451 36.8267 93.3691 35.648C91.4278 34.4347 89.8678 32.8053 88.6891 30.76C87.5104 28.68 86.9211 26.3747 86.9211 23.844C86.9211 21.348 87.5104 19.0947 88.6891 17.084C89.8678 15.0387 91.4451 13.444 93.4211 12.3C95.3971 11.156 97.4944 10.584 99.7131 10.584C101.516 10.584 103.18 11.0867 104.705 12.092C106.265 13.0973 107.444 14.6053 108.241 16.616V10.584H119.161V37H108.241V32.164C106.508 35.6653 103.665 37.416 99.7131 37.416ZM103.093 29.2C104.48 29.2 105.658 28.7147 106.629 27.744C107.634 26.7387 108.172 25.56 108.241 24.208V23.792C108.172 22.4053 107.617 21.2267 106.577 20.256C105.572 19.2853 104.41 18.8 103.093 18.8C101.637 18.8 100.389 19.32 99.3491 20.36C98.3438 21.3653 97.8411 22.5787 97.8411 24C97.8411 25.456 98.3611 26.6867 99.4011 27.692C100.441 28.6973 101.672 29.2 103.093 29.2ZM136.816 37.416C133.765 37.416 131.391 36.5493 129.692 34.816C127.993 33.048 127.144 30.6213 127.144 27.536V17.396H123.816V10.948H127.924L132.76 1.12H138.012V10.948H144.044V17.396H138.012V26.236C138.012 27.1027 138.289 27.7787 138.844 28.264C139.399 28.7493 140.179 28.992 141.184 28.992C142.12 28.992 142.969 28.784 143.732 28.368L144.148 35.648C143.281 36.168 142.155 36.6013 140.768 36.948C139.416 37.26 138.099 37.416 136.816 37.416ZM161.986 37.416C159.109 37.416 156.543 36.844 154.29 35.7C152.071 34.5213 150.338 32.9267 149.09 30.916C147.842 28.8707 147.218 26.5653 147.218 24C147.218 21.3653 147.859 19.0253 149.142 16.98C150.425 14.9347 152.158 13.3573 154.342 12.248C156.526 11.1387 158.953 10.584 161.622 10.584C164.187 10.584 166.371 11.156 168.174 12.3C170.011 13.4093 171.381 14.9347 172.282 16.876C173.183 18.7827 173.634 20.932 173.634 23.324C173.634 23.948 173.599 24.3987 173.53 24.676L157.93 26.704C158.346 27.9173 159.022 28.8013 159.958 29.356C160.894 29.876 162.125 30.136 163.65 30.136C166.007 30.136 168.555 29.5293 171.294 28.316L172.594 35.284C169.37 36.7053 165.834 37.416 161.986 37.416ZM165.574 20.152C165.019 17.968 163.702 16.876 161.622 16.876C160.374 16.876 159.386 17.344 158.658 18.28C157.93 19.216 157.549 20.4293 157.514 21.92L165.574 20.152ZM200.604 37.416C198.35 37.416 196.236 36.8267 194.26 35.648C192.318 34.4347 190.758 32.8053 189.58 30.76C188.401 28.68 187.812 26.3747 187.812 23.844C187.812 21.348 188.401 19.0947 189.58 17.084C190.758 15.0387 192.336 13.444 194.312 12.3C196.288 11.156 198.385 10.584 200.604 10.584C202.406 10.584 204.07 11.0867 205.596 12.092C207.156 13.0973 208.334 14.6053 209.132 16.616V10.584H220.052V37H209.132V32.164C207.398 35.6653 204.556 37.416 200.604 37.416ZM203.984 29.2C205.37 29.2 206.549 28.7147 207.52 27.744C208.525 26.7387 209.062 25.56 209.132 24.208V23.792C209.062 22.4053 208.508 21.2267 207.468 20.256C206.462 19.2853 205.301 18.8 203.984 18.8C202.528 18.8 201.28 19.32 200.24 20.36C199.234 21.3653 198.732 22.5787 198.732 24C198.732 25.456 199.252 26.6867 200.292 27.692C201.332 28.6973 202.562 29.2 203.984 29.2ZM226.319 11.312H236.771V16.616C238.781 12.5947 241.971 10.584 246.339 10.584C249.667 10.584 252.267 11.78 254.139 14.172C256.045 16.5293 256.999 19.8053 256.999 24V37H246.079V22.908C246.079 21.4173 245.749 20.2733 245.091 19.476C244.467 18.6787 243.583 18.28 242.439 18.28C241.607 18.28 240.792 18.5573 239.995 19.112C239.197 19.632 238.539 20.3947 238.019 21.4C237.533 22.4053 237.291 23.5493 237.291 24.832V37H226.319V11.312ZM274.406 37.416C272.049 37.416 269.899 36.792 267.958 35.544C266.051 34.296 264.543 32.6493 263.434 30.604C262.325 28.524 261.77 26.3227 261.77 24C261.77 21.5387 262.342 19.2853 263.486 17.24C264.665 15.16 266.225 13.5307 268.166 12.352C270.142 11.1733 272.239 10.584 274.458 10.584C276.469 10.584 278.167 11 279.554 11.832C280.975 12.664 282.119 13.9987 282.986 15.836V2.732L293.958 1.12V37H282.986V32.164C281.357 35.6653 278.497 37.416 274.406 37.416ZM277.838 29.2C279.294 29.2 280.507 28.68 281.478 27.64C282.483 26.6 282.986 25.3867 282.986 24V23.792C282.986 22.44 282.466 21.2787 281.426 20.308C280.386 19.3027 279.19 18.8 277.838 18.8C276.382 18.8 275.151 19.32 274.146 20.36C273.175 21.3653 272.69 22.5787 272.69 24C272.69 25.456 273.193 26.6867 274.198 27.692C275.238 28.6973 276.451 29.2 277.838 29.2ZM319.971 37.416C316.331 37.416 313.142 36.8787 310.403 35.804L311.599 29.616C314.095 30.5173 316.522 30.968 318.879 30.968C320.612 30.968 321.479 30.4827 321.479 29.512C321.479 29.0267 321.219 28.628 320.699 28.316C320.214 28.004 319.278 27.7267 317.891 27.484C315.014 26.9293 312.934 25.9933 311.651 24.676C310.403 23.3587 309.779 21.4867 309.779 19.06C309.918 16.3213 311.01 14.224 313.055 12.768C315.1 11.312 317.891 10.584 321.427 10.584C323.23 10.584 324.772 10.7053 326.055 10.948C327.372 11.156 328.568 11.52 329.643 12.04L328.551 18.228C327.546 17.8467 326.436 17.552 325.223 17.344C324.044 17.136 323.056 17.032 322.259 17.032C321.08 17.032 320.266 17.1533 319.815 17.396C319.364 17.6387 319.139 17.968 319.139 18.384C319.139 19.1467 320.006 19.684 321.739 19.996C324.894 20.5507 327.251 21.5213 328.811 22.908C330.371 24.2947 331.151 26.184 331.151 28.576C331.151 31.3147 330.18 33.4813 328.239 35.076C326.332 36.636 323.576 37.416 319.971 37.416ZM349.463 37.416C346.585 37.416 344.02 36.844 341.767 35.7C339.548 34.5213 337.815 32.9267 336.567 30.916C335.319 28.8707 334.695 26.5653 334.695 24C334.695 21.3653 335.336 19.0253 336.619 16.98C337.901 14.9347 339.635 13.3573 341.819 12.248C344.003 11.1387 346.429 10.584 349.099 10.584C351.664 10.584 353.848 11.156 355.651 12.3C357.488 13.4093 358.857 14.9347 359.759 16.876C360.66 18.7827 361.111 20.932 361.111 23.324C361.111 23.948 361.076 24.3987 361.007 24.676L345.407 26.704C345.823 27.9173 346.499 28.8013 347.435 29.356C348.371 29.876 349.601 30.136 351.127 30.136C353.484 30.136 356.032 29.5293 358.771 28.316L360.071 35.284C356.847 36.7053 353.311 37.416 349.463 37.416ZM353.051 20.152C352.496 17.968 351.179 16.876 349.099 16.876C347.851 16.876 346.863 17.344 346.135 18.28C345.407 19.216 345.025 20.4293 344.991 21.92L353.051 20.152ZM375.041 37.416C372.094 37.416 369.806 36.4973 368.177 34.66C366.582 32.788 365.785 30.24 365.785 27.016V2.732L376.757 1.12V26.236C376.757 27.2067 376.982 27.9173 377.433 28.368C377.918 28.784 378.75 28.992 379.929 28.992C380.796 28.992 381.645 28.784 382.477 28.368L382.841 35.648C380.518 36.8267 377.918 37.416 375.041 37.416ZM395.693 37.416C392.747 37.416 390.459 36.4973 388.829 34.66C387.235 32.788 386.437 30.24 386.437 27.016V2.732L397.409 1.12V26.236C397.409 27.2067 397.635 27.9173 398.085 28.368C398.571 28.784 399.403 28.992 400.581 28.992C401.448 28.992 402.297 28.784 403.129 28.368L403.493 35.648C401.171 36.8267 398.571 37.416 395.693 37.416ZM418.673 1.224H429.125L443.373 20.516V1.224H452.681V37H442.281L427.929 18.384V37H418.673V1.224ZM460.45 1.224H485.098V9.128H471.63V16.356H484.11V22.908H471.63V37H460.45V1.224ZM496.671 9.128H489.235V1.224H516.223V9.128H508.787V37H496.671V9.128ZM527.44 37.416C523.8 37.416 520.61 36.8787 517.872 35.804L519.068 29.616C521.564 30.5173 523.99 30.968 526.348 30.968C528.081 30.968 528.948 30.4827 528.948 29.512C528.948 29.0267 528.688 28.628 528.168 28.316C527.682 28.004 526.746 27.7267 525.36 27.484C522.482 26.9293 520.402 25.9933 519.12 24.676C517.872 23.3587 517.248 21.4867 517.248 19.06C517.386 16.3213 518.478 14.224 520.524 12.768C522.569 11.312 525.36 10.584 528.896 10.584C530.698 10.584 532.241 10.7053 533.524 10.948C534.841 11.156 536.037 11.52 537.112 12.04L536.02 18.228C535.014 17.8467 533.905 17.552 532.692 17.344C531.513 17.136 530.525 17.032 529.728 17.032C528.549 17.032 527.734 17.1533 527.284 17.396C526.833 17.6387 526.608 17.968 526.608 18.384C526.608 19.1467 527.474 19.684 529.208 19.996C532.362 20.5507 534.72 21.5213 536.28 22.908C537.84 24.2947 538.62 26.184 538.62 28.576C538.62 31.3147 537.649 33.4813 535.708 35.076C533.801 36.636 531.045 37.416 527.44 37.416Z" fill="white"/>
</svg>
