<svg width="650" height="267" viewBox="0 0 650 267" fill="none" xmlns="http://www.w3.org/2000/svg">
<path d="M3.46 8.208H28.576C34.624 8.208 39.972 9.412 44.62 11.82C49.324 14.228 52.964 17.588 55.54 21.9C58.172 26.212 59.488 31.14 59.488 36.684C59.488 42.508 58.2 47.632 55.624 52.056C53.104 56.48 49.492 59.924 44.788 62.388C40.14 64.796 34.736 66 28.576 66H3.46V8.208ZM27.736 50.88C31.936 50.88 35.128 49.564 37.312 46.932C39.552 44.244 40.672 40.772 40.672 36.516C40.672 32.484 39.58 29.292 37.396 26.94C35.268 24.532 32.048 23.328 27.736 23.328H22.024V50.88H27.736ZM82.1324 66.672C77.4284 66.672 73.7604 65.16 71.1284 62.136C68.4964 59.112 67.1804 54.996 67.1804 49.788V23.916H84.9884V49.032C84.9884 50.32 85.3244 51.328 85.9964 52.056C86.7244 52.728 87.6484 53.064 88.7684 53.064C89.8884 53.064 91.0364 52.728 92.2124 52.056L93.1364 63.732C91.9044 64.684 90.2804 65.412 88.2644 65.916C86.3044 66.42 84.2604 66.672 82.1324 66.672ZM76.0844 17.616C73.4524 17.616 71.2124 16.804 69.3644 15.18C67.5724 13.5 66.6764 11.456 66.6764 9.048C66.6764 6.64 67.6284 4.624 69.5324 2.99999C71.4364 1.376 73.6204 0.563996 76.0844 0.563996C78.6604 0.563996 80.8724 1.404 82.7204 3.084C84.6244 4.764 85.5764 6.752 85.5764 9.048C85.5764 11.512 84.6244 13.556 82.7204 15.18C80.8164 16.804 78.6044 17.616 76.0844 17.616ZM113.56 66.672C107.68 66.672 102.528 65.804 98.1041 64.068L100.036 54.072C104.068 55.528 107.988 56.256 111.796 56.256C114.596 56.256 115.996 55.472 115.996 53.904C115.996 53.12 115.576 52.476 114.736 51.972C113.952 51.468 112.44 51.02 110.2 50.628C105.552 49.732 102.192 48.22 100.12 46.092C98.1041 43.964 97.0961 40.94 97.0961 37.02C97.3201 32.596 99.0841 29.208 102.388 26.856C105.692 24.504 110.2 23.328 115.912 23.328C118.824 23.328 121.316 23.524 123.388 23.916C125.516 24.252 127.448 24.84 129.184 25.68L127.42 35.676C125.796 35.06 124.004 34.584 122.044 34.248C120.14 33.912 118.544 33.744 117.256 33.744C115.352 33.744 114.036 33.94 113.308 34.332C112.58 34.724 112.216 35.256 112.216 35.928C112.216 37.16 113.616 38.028 116.416 38.532C121.512 39.428 125.32 40.996 127.84 43.236C130.36 45.476 131.62 48.528 131.62 52.392C131.62 56.816 130.052 60.316 126.916 62.892C123.836 65.412 119.384 66.672 113.56 66.672ZM159.577 66.672C155.097 66.672 151.121 65.776 147.649 63.984C144.233 62.136 141.545 59.56 139.585 56.256C137.681 52.952 136.729 49.2 136.729 45C136.729 40.968 137.737 37.3 139.753 33.996C141.769 30.692 144.513 28.088 147.985 26.184C151.457 24.28 155.321 23.328 159.577 23.328C165.009 23.328 169.293 24.448 172.429 26.688L170.833 37.86C167.641 36.908 165.009 36.432 162.937 36.432C160.249 36.432 158.121 37.216 156.553 38.784C154.985 40.296 154.201 42.368 154.201 45C154.201 47.632 154.985 49.732 156.553 51.3C158.121 52.868 160.193 53.652 162.769 53.652C165.009 53.652 167.641 53.176 170.665 52.224L172.261 63.984C170.357 64.936 168.425 65.608 166.465 66C164.505 66.448 162.209 66.672 159.577 66.672ZM201.05 66.672C196.346 66.672 192.146 65.748 188.45 63.9C184.81 62.052 181.954 59.504 179.882 56.256C177.866 52.952 176.858 49.172 176.858 44.916C176.858 40.66 177.894 36.908 179.966 33.66C182.038 30.356 184.894 27.808 188.534 26.016C192.23 24.224 196.43 23.328 201.134 23.328C205.894 23.328 210.094 24.252 213.734 26.1C217.43 27.892 220.286 30.412 222.302 33.66C224.318 36.908 225.326 40.66 225.326 44.916C225.326 49.228 224.29 53.036 222.218 56.34C220.202 59.588 217.346 62.136 213.65 63.984C210.01 65.776 205.81 66.672 201.05 66.672ZM201.218 54.072C203.514 54.072 205.39 53.232 206.846 51.552C208.358 49.816 209.114 47.604 209.114 44.916C209.114 42.228 208.358 40.044 206.846 38.364C205.39 36.628 203.514 35.76 201.218 35.76C198.922 35.76 197.018 36.628 195.506 38.364C194.05 40.044 193.322 42.228 193.322 44.916C193.322 47.604 194.05 49.816 195.506 51.552C197.018 53.232 198.922 54.072 201.218 54.072ZM227.932 23.916H247.42L253.888 49.116L260.188 23.916H275.56L262.204 66H241.792L227.932 23.916ZM302.218 66.672C297.57 66.672 293.426 65.748 289.786 63.9C286.202 61.996 283.402 59.42 281.386 56.172C279.37 52.868 278.362 49.144 278.362 45C278.362 40.744 279.398 36.964 281.47 33.66C283.542 30.356 286.342 27.808 289.87 26.016C293.398 24.224 297.318 23.328 301.63 23.328C305.774 23.328 309.302 24.252 312.214 26.1C315.182 27.892 317.394 30.356 318.85 33.492C320.306 36.572 321.034 40.044 321.034 43.908C321.034 44.916 320.978 45.644 320.866 46.092L295.666 49.368C296.338 51.328 297.43 52.756 298.942 53.652C300.454 54.492 302.442 54.912 304.906 54.912C308.714 54.912 312.83 53.932 317.254 51.972L319.354 63.228C314.146 65.524 308.434 66.672 302.218 66.672ZM308.014 38.784C307.118 35.256 304.99 33.492 301.63 33.492C299.614 33.492 298.018 34.248 296.842 35.76C295.666 37.272 295.05 39.232 294.994 41.64L308.014 38.784ZM328.138 24.504H345.862V33.072C347.15 29.768 348.886 27.332 351.07 25.764C353.31 24.14 355.914 23.328 358.882 23.328L361.318 37.02C355.998 37.02 352.078 37.608 349.558 38.784C347.094 39.904 345.862 41.696 345.862 44.16V66H328.138V24.504ZM383.294 24.504H401.018V33.072C402.306 29.768 404.042 27.332 406.226 25.764C408.466 24.14 411.07 23.328 414.038 23.328L416.474 37.02C411.154 37.02 407.234 37.608 404.714 38.784C402.25 39.904 401.018 41.696 401.018 44.16V66H383.294V24.504ZM440.346 66.672C436.706 66.672 433.29 65.72 430.098 63.816C426.962 61.856 424.442 59.224 422.538 55.92C420.634 52.56 419.682 48.836 419.682 44.748C419.682 40.716 420.634 37.076 422.538 33.828C424.442 30.524 426.99 27.948 430.182 26.1C433.374 24.252 436.762 23.328 440.346 23.328C443.258 23.328 445.946 24.14 448.41 25.764C450.93 27.388 452.834 29.824 454.122 33.072V23.328H471.762V66H454.122V58.188C451.322 63.844 446.73 66.672 440.346 66.672ZM445.806 53.4C448.046 53.4 449.95 52.616 451.518 51.048C453.142 49.424 454.01 47.52 454.122 45.336V44.664C454.01 42.424 453.114 40.52 451.434 38.952C449.81 37.384 447.934 36.6 445.806 36.6C443.454 36.6 441.438 37.44 439.758 39.12C438.134 40.744 437.322 42.704 437.322 45C437.322 47.352 438.162 49.34 439.842 50.964C441.522 52.588 443.51 53.4 445.806 53.4ZM481.27 24.504H498.994V33.072C500.282 29.768 502.018 27.332 504.202 25.764C506.442 24.14 509.046 23.328 512.014 23.328L514.45 37.02C509.13 37.02 505.21 37.608 502.69 38.784C500.226 39.904 498.994 41.696 498.994 44.16V66H481.27V24.504ZM541.515 66.672C536.867 66.672 532.723 65.748 529.083 63.9C525.499 61.996 522.699 59.42 520.683 56.172C518.667 52.868 517.659 49.144 517.659 45C517.659 40.744 518.695 36.964 520.767 33.66C522.839 30.356 525.639 27.808 529.167 26.016C532.695 24.224 536.615 23.328 540.927 23.328C545.071 23.328 548.599 24.252 551.511 26.1C554.479 27.892 556.691 30.356 558.147 33.492C559.603 36.572 560.331 40.044 560.331 43.908C560.331 44.916 560.275 45.644 560.163 46.092L534.963 49.368C535.635 51.328 536.727 52.756 538.239 53.652C539.751 54.492 541.739 54.912 544.203 54.912C548.011 54.912 552.127 53.932 556.551 51.972L558.651 63.228C553.443 65.524 547.731 66.672 541.515 66.672ZM547.311 38.784C546.415 35.256 544.287 33.492 540.927 33.492C538.911 33.492 537.315 34.248 536.139 35.76C534.963 37.272 534.347 39.232 534.291 41.64L547.311 38.784ZM20.596 166.672C16.788 166.672 13.316 165.664 10.18 163.648C7.1 161.632 4.664 158.972 2.872 155.668C1.08 152.308 0.184 148.752 0.184 145C0.184 141.024 1.108 137.384 2.956 134.08C4.86 130.72 7.38 128.088 10.516 126.184C13.708 124.28 17.096 123.328 20.68 123.328C23.928 123.328 26.672 124 28.912 125.344C31.208 126.688 33.056 128.844 34.456 131.812V110.644L52.18 108.04V166H34.456V158.188C31.824 163.844 27.204 166.672 20.596 166.672ZM26.14 153.4C28.492 153.4 30.452 152.56 32.02 150.88C33.644 149.2 34.456 147.24 34.456 145V144.664C34.456 142.48 33.616 140.604 31.936 139.036C30.256 137.412 28.324 136.6 26.14 136.6C23.788 136.6 21.8 137.44 20.176 139.12C18.608 140.744 17.824 142.704 17.824 145C17.824 147.352 18.636 149.34 20.26 150.964C21.94 152.588 23.9 153.4 26.14 153.4ZM76.5543 166.672C71.8503 166.672 68.1823 165.16 65.5503 162.136C62.9183 159.112 61.6023 154.996 61.6023 149.788V123.916H79.4103V149.032C79.4103 150.32 79.7463 151.328 80.4183 152.056C81.1463 152.728 82.0703 153.064 83.1903 153.064C84.3103 153.064 85.4583 152.728 86.6343 152.056L87.5583 163.732C86.3263 164.684 84.7023 165.412 82.6863 165.916C80.7263 166.42 78.6823 166.672 76.5543 166.672ZM70.5063 117.616C67.8743 117.616 65.6343 116.804 63.7863 115.18C61.9943 113.5 61.0983 111.456 61.0983 109.048C61.0983 106.64 62.0503 104.624 63.9543 103C65.8583 101.376 68.0423 100.564 70.5063 100.564C73.0823 100.564 75.2943 101.404 77.1423 103.084C79.0463 104.764 79.9983 106.752 79.9983 109.048C79.9983 111.512 79.0463 113.556 77.1423 115.18C75.2383 116.804 73.0263 117.616 70.5063 117.616ZM117.222 185.236C114.142 185.236 111.202 184.928 108.402 184.312L109.746 171.88C111.93 172.216 113.946 172.384 115.794 172.384C119.266 172.384 121.898 171.348 123.69 169.276C125.482 167.26 126.546 163.844 126.882 159.028C123.578 163.676 118.538 166 111.762 166C108.066 166 104.65 165.048 101.514 163.144C98.434 161.24 95.97 158.664 94.122 155.416C92.33 152.168 91.434 148.612 91.434 144.748C91.434 140.828 92.33 137.244 94.122 133.996C95.914 130.692 98.35 128.088 101.43 126.184C104.566 124.28 107.982 123.328 111.678 123.328C115.094 123.328 118.062 124.224 120.582 126.016C123.158 127.752 124.838 130.104 125.622 133.072V123.328H143.346V155.332C143.346 165.132 141.106 172.552 136.626 177.592C132.202 182.688 125.734 185.236 117.222 185.236ZM117.222 153.4C119.462 153.4 121.394 152.616 123.018 151.048C124.642 149.424 125.51 147.52 125.622 145.336V144.664C125.51 142.536 124.614 140.66 122.934 139.036C121.31 137.412 119.406 136.6 117.222 136.6C114.926 136.6 112.966 137.44 111.342 139.12C109.718 140.744 108.906 142.704 108.906 145C108.906 147.296 109.718 149.284 111.342 150.964C112.966 152.588 114.926 153.4 117.222 153.4ZM167.64 166.672C162.936 166.672 159.268 165.16 156.636 162.136C154.004 159.112 152.688 154.996 152.688 149.788V123.916H170.496V149.032C170.496 150.32 170.832 151.328 171.504 152.056C172.232 152.728 173.156 153.064 174.276 153.064C175.396 153.064 176.544 152.728 177.72 152.056L178.644 163.732C177.412 164.684 175.788 165.412 173.772 165.916C171.812 166.42 169.768 166.672 167.64 166.672ZM161.592 117.616C158.96 117.616 156.72 116.804 154.872 115.18C153.08 113.5 152.184 111.456 152.184 109.048C152.184 106.64 153.136 104.624 155.04 103C156.944 101.376 159.128 100.564 161.592 100.564C164.168 100.564 166.38 101.404 168.228 103.084C170.132 104.764 171.084 106.752 171.084 109.048C171.084 111.512 170.132 113.556 168.228 115.18C166.324 116.804 164.112 117.616 161.592 117.616ZM202.03 166.672C197.102 166.672 193.266 165.272 190.522 162.472C187.778 159.616 186.406 155.696 186.406 150.712V134.332H181.03V123.916H187.666L195.478 108.04H203.962V123.916H213.706V134.332H203.962V148.612C203.962 150.012 204.41 151.104 205.306 151.888C206.202 152.672 207.462 153.064 209.086 153.064C210.598 153.064 211.97 152.728 213.202 152.056L213.874 163.816C212.474 164.656 210.654 165.356 208.414 165.916C206.23 166.42 204.102 166.672 202.03 166.672ZM238.881 166.672C235.241 166.672 231.825 165.72 228.633 163.816C225.497 161.856 222.977 159.224 221.073 155.92C219.169 152.56 218.217 148.836 218.217 144.748C218.217 140.716 219.169 137.076 221.073 133.828C222.977 130.524 225.525 127.948 228.717 126.1C231.909 124.252 235.297 123.328 238.881 123.328C241.793 123.328 244.481 124.14 246.945 125.764C249.465 127.388 251.369 129.824 252.657 133.072V123.328H270.297V166H252.657V158.188C249.857 163.844 245.265 166.672 238.881 166.672ZM244.341 153.4C246.581 153.4 248.485 152.616 250.053 151.048C251.677 149.424 252.545 147.52 252.657 145.336V144.664C252.545 142.424 251.649 140.52 249.969 138.952C248.345 137.384 246.469 136.6 244.341 136.6C241.989 136.6 239.973 137.44 238.293 139.12C236.669 140.744 235.857 142.704 235.857 145C235.857 147.352 236.697 149.34 238.377 150.964C240.057 152.588 242.045 153.4 244.341 153.4ZM294.589 166.672C289.829 166.672 286.133 165.188 283.501 162.22C280.925 159.196 279.637 155.08 279.637 149.872V110.644L297.361 108.04V148.612C297.361 150.18 297.725 151.328 298.453 152.056C299.237 152.728 300.581 153.064 302.485 153.064C303.885 153.064 305.257 152.728 306.601 152.056L307.189 163.816C303.437 165.72 299.237 166.672 294.589 166.672ZM347.784 166.672C344.144 166.672 340.728 165.72 337.536 163.816C334.4 161.856 331.88 159.224 329.976 155.92C328.072 152.56 327.12 148.836 327.12 144.748C327.12 140.716 328.072 137.076 329.976 133.828C331.88 130.524 334.428 127.948 337.62 126.1C340.812 124.252 344.2 123.328 347.784 123.328C350.696 123.328 353.384 124.14 355.848 125.764C358.368 127.388 360.272 129.824 361.56 133.072V123.328H379.2V166H361.56V158.188C358.76 163.844 354.168 166.672 347.784 166.672ZM353.244 153.4C355.484 153.4 357.388 152.616 358.956 151.048C360.58 149.424 361.448 147.52 361.56 145.336V144.664C361.448 142.424 360.552 140.52 358.872 138.952C357.248 137.384 355.372 136.6 353.244 136.6C350.892 136.6 348.876 137.44 347.196 139.12C345.572 140.744 344.76 142.704 344.76 145C344.76 147.352 345.6 149.34 347.28 150.964C348.96 152.588 350.948 153.4 353.244 153.4ZM388.708 124.504H406.432V133.072C407.72 129.768 409.456 127.332 411.64 125.764C413.88 124.14 416.484 123.328 419.452 123.328L421.888 137.02C416.568 137.02 412.648 137.608 410.128 138.784C407.664 139.904 406.432 141.696 406.432 144.16V166H388.708V124.504ZM445.592 166.672C440.664 166.672 436.828 165.272 434.084 162.472C431.34 159.616 429.968 155.696 429.968 150.712V134.332H424.592V123.916H431.228L439.04 108.04H447.524V123.916H457.268V134.332H447.524V148.612C447.524 150.012 447.972 151.104 448.868 151.888C449.764 152.672 451.024 153.064 452.648 153.064C454.16 153.064 455.532 152.728 456.764 152.056L457.436 163.816C456.036 164.656 454.216 165.356 451.976 165.916C449.792 166.42 447.664 166.672 445.592 166.672ZM499.932 166.672C496.292 166.672 492.876 165.72 489.684 163.816C486.548 161.856 484.028 159.224 482.124 155.92C480.22 152.56 479.268 148.836 479.268 144.748C479.268 140.716 480.22 137.076 482.124 133.828C484.028 130.524 486.576 127.948 489.768 126.1C492.96 124.252 496.348 123.328 499.932 123.328C502.844 123.328 505.532 124.14 507.996 125.764C510.516 127.388 512.42 129.824 513.708 133.072V123.328H531.348V166H513.708V158.188C510.908 163.844 506.316 166.672 499.932 166.672ZM505.392 153.4C507.632 153.4 509.536 152.616 511.104 151.048C512.728 149.424 513.596 147.52 513.708 145.336V144.664C513.596 142.424 512.7 140.52 511.02 138.952C509.396 137.384 507.52 136.6 505.392 136.6C503.04 136.6 501.024 137.44 499.344 139.12C497.72 140.744 496.908 142.704 496.908 145C496.908 147.352 497.748 149.34 499.428 150.964C501.108 152.588 503.096 153.4 505.392 153.4ZM540.856 124.504H557.74V133.072C560.988 126.576 566.14 123.328 573.196 123.328C578.572 123.328 582.772 125.26 585.796 129.124C588.876 132.932 590.416 138.224 590.416 145V166H572.776V143.236C572.776 140.828 572.244 138.98 571.18 137.692C570.172 136.404 568.744 135.76 566.896 135.76C565.552 135.76 564.236 136.208 562.948 137.104C561.66 137.944 560.596 139.176 559.756 140.8C558.972 142.424 558.58 144.272 558.58 146.344V166H540.856V124.504ZM617.92 166.672C614.112 166.672 610.64 165.664 607.504 163.648C604.424 161.632 601.988 158.972 600.196 155.668C598.404 152.308 597.508 148.752 597.508 145C597.508 141.024 598.432 137.384 600.28 134.08C602.184 130.72 604.704 128.088 607.84 126.184C611.032 124.28 614.42 123.328 618.004 123.328C621.252 123.328 623.996 124 626.236 125.344C628.532 126.688 630.38 128.844 631.78 131.812V110.644L649.504 108.04V166H631.78V158.188C629.148 163.844 624.528 166.672 617.92 166.672ZM623.464 153.4C625.816 153.4 627.776 152.56 629.344 150.88C630.968 149.2 631.78 147.24 631.78 145V144.664C631.78 142.48 630.94 140.604 629.26 139.036C627.58 137.412 625.648 136.6 623.464 136.6C621.112 136.6 619.124 137.44 617.5 139.12C615.932 140.744 615.148 142.704 615.148 145C615.148 147.352 615.96 149.34 617.584 150.964C619.264 152.588 621.224 153.4 623.464 153.4ZM22.948 266.672C18.468 266.672 14.492 265.776 11.02 263.984C7.604 262.136 4.916 259.56 2.956 256.256C1.052 252.952 0.1 249.2 0.1 245C0.1 240.968 1.108 237.3 3.124 233.996C5.14 230.692 7.884 228.088 11.356 226.184C14.828 224.28 18.692 223.328 22.948 223.328C28.38 223.328 32.664 224.448 35.8 226.688L34.204 237.86C31.012 236.908 28.38 236.432 26.308 236.432C23.62 236.432 21.492 237.216 19.924 238.784C18.356 240.296 17.572 242.368 17.572 245C17.572 247.632 18.356 249.732 19.924 251.3C21.492 252.868 23.564 253.652 26.14 253.652C28.38 253.652 31.012 253.176 34.036 252.224L35.632 263.984C33.728 264.936 31.796 265.608 29.836 266C27.876 266.448 25.58 266.672 22.948 266.672ZM64.4209 266.672C59.7169 266.672 55.5169 265.748 51.8209 263.9C48.1809 262.052 45.3249 259.504 43.2529 256.256C41.2369 252.952 40.2289 249.172 40.2289 244.916C40.2289 240.66 41.2649 236.908 43.3369 233.66C45.4089 230.356 48.2649 227.808 51.9049 226.016C55.6009 224.224 59.8009 223.328 64.5049 223.328C69.2649 223.328 73.4649 224.252 77.1049 226.1C80.8009 227.892 83.6569 230.412 85.6729 233.66C87.6889 236.908 88.6969 240.66 88.6969 244.916C88.6969 249.228 87.6609 253.036 85.5889 256.34C83.5729 259.588 80.7169 262.136 77.0209 263.984C73.3809 265.776 69.1809 266.672 64.4209 266.672ZM64.5889 254.072C66.8849 254.072 68.7609 253.232 70.2169 251.552C71.7289 249.816 72.4849 247.604 72.4849 244.916C72.4849 242.228 71.7289 240.044 70.2169 238.364C68.7609 236.628 66.8849 235.76 64.5889 235.76C62.2929 235.76 60.3889 236.628 58.8769 238.364C57.4209 240.044 56.6929 242.228 56.6929 244.916C56.6929 247.604 57.4209 249.816 58.8769 251.552C60.3889 253.232 62.2929 254.072 64.5889 254.072ZM110.777 266.672C106.017 266.672 102.321 265.188 99.689 262.22C97.113 259.196 95.825 255.08 95.825 249.872V210.644L113.549 208.04V248.612C113.549 250.18 113.913 251.328 114.641 252.056C115.425 252.728 116.769 253.064 118.673 253.064C120.073 253.064 121.445 252.728 122.789 252.056L123.377 263.816C119.625 265.72 115.425 266.672 110.777 266.672ZM143.523 266.672C138.763 266.672 135.067 265.188 132.435 262.22C129.859 259.196 128.571 255.08 128.571 249.872V210.644L146.295 208.04V248.612C146.295 250.18 146.659 251.328 147.387 252.056C148.171 252.728 149.515 253.064 151.419 253.064C152.819 253.064 154.191 252.728 155.535 252.056L156.123 263.816C152.371 265.72 148.171 266.672 143.523 266.672ZM183.241 266.672C178.593 266.672 174.449 265.748 170.809 263.9C167.225 261.996 164.425 259.42 162.409 256.172C160.393 252.868 159.385 249.144 159.385 245C159.385 240.744 160.421 236.964 162.493 233.66C164.565 230.356 167.365 227.808 170.893 226.016C174.421 224.224 178.341 223.328 182.653 223.328C186.797 223.328 190.325 224.252 193.237 226.1C196.205 227.892 198.417 230.356 199.873 233.492C201.329 236.572 202.057 240.044 202.057 243.908C202.057 244.916 202.001 245.644 201.889 246.092L176.689 249.368C177.361 251.328 178.453 252.756 179.965 253.652C181.477 254.492 183.465 254.912 185.929 254.912C189.737 254.912 193.853 253.932 198.277 251.972L200.377 263.228C195.169 265.524 189.457 266.672 183.241 266.672ZM189.037 238.784C188.141 235.256 186.013 233.492 182.653 233.492C180.637 233.492 179.041 234.248 177.865 235.76C176.689 237.272 176.073 239.232 176.017 241.64L189.037 238.784ZM229.909 266.672C225.429 266.672 221.453 265.776 217.981 263.984C214.565 262.136 211.877 259.56 209.917 256.256C208.013 252.952 207.061 249.2 207.061 245C207.061 240.968 208.069 237.3 210.085 233.996C212.101 230.692 214.845 228.088 218.317 226.184C221.789 224.28 225.653 223.328 229.909 223.328C235.341 223.328 239.625 224.448 242.761 226.688L241.165 237.86C237.973 236.908 235.341 236.432 233.269 236.432C230.581 236.432 228.453 237.216 226.885 238.784C225.317 240.296 224.533 242.368 224.533 245C224.533 247.632 225.317 249.732 226.885 251.3C228.453 252.868 230.525 253.652 233.101 253.652C235.341 253.652 237.973 253.176 240.997 252.224L242.593 263.984C240.689 264.936 238.757 265.608 236.797 266C234.837 266.448 232.541 266.672 229.909 266.672ZM268.178 266.672C263.25 266.672 259.414 265.272 256.67 262.472C253.926 259.616 252.554 255.696 252.554 250.712V234.332H247.178V223.916H253.814L261.626 208.04H270.11V223.916H279.854V234.332H270.11V248.612C270.11 250.012 270.558 251.104 271.454 251.888C272.35 252.672 273.61 253.064 275.234 253.064C276.746 253.064 278.118 252.728 279.35 252.056L280.022 263.816C278.622 264.656 276.802 265.356 274.562 265.916C272.378 266.42 270.25 266.672 268.178 266.672ZM305.214 208.208H322.098L345.114 239.372V208.208H360.15V266H343.35L320.166 235.928V266H305.214V208.208ZM372.085 208.208H411.901V220.976H390.145V232.652H410.305V243.236H390.145V266H372.085V208.208ZM429.979 220.976H417.967V208.208H461.563V220.976H449.551V266H429.979V220.976ZM468.792 228.284C471.648 228.284 473.524 228.228 474.42 228.116C475.316 228.004 475.904 227.668 476.184 227.108C476.464 226.548 476.604 225.484 476.604 223.916H468.792V208.208H486.012V216.776C486.012 223.216 485.62 227.864 484.836 230.72C484.108 233.52 482.568 235.452 480.216 236.516C477.92 237.58 474.112 238.112 468.792 238.112V228.284ZM509.517 266.672C503.637 266.672 498.485 265.804 494.061 264.068L495.993 254.072C500.025 255.528 503.945 256.256 507.753 256.256C510.553 256.256 511.953 255.472 511.953 253.904C511.953 253.12 511.533 252.476 510.693 251.972C509.909 251.468 508.397 251.02 506.157 250.628C501.509 249.732 498.149 248.22 496.077 246.092C494.061 243.964 493.053 240.94 493.053 237.02C493.277 232.596 495.041 229.208 498.345 226.856C501.649 224.504 506.157 223.328 511.869 223.328C514.781 223.328 517.273 223.524 519.345 223.916C521.473 224.252 523.405 224.84 525.141 225.68L523.377 235.676C521.753 235.06 519.961 234.584 518.001 234.248C516.097 233.912 514.501 233.744 513.213 233.744C511.309 233.744 509.993 233.94 509.265 234.332C508.537 234.724 508.173 235.256 508.173 235.928C508.173 237.16 509.573 238.028 512.373 238.532C517.469 239.428 521.277 240.996 523.797 243.236C526.317 245.476 527.577 248.528 527.577 252.392C527.577 256.816 526.009 260.316 522.873 262.892C519.793 265.412 515.341 266.672 509.517 266.672Z" fill="white"/>
</svg>
