<svg width="301" height="82" viewBox="0 0 301 82" fill="none" xmlns="http://www.w3.org/2000/svg">
<path d="M14 15H18V30H14V15Z" fill="#D400B3"/>
<path d="M3 12H18V16H3V12Z" fill="#D400B3"/>
<path d="M0.036 43.616H4.104L6.012 51.338L7.92 43.616H12.168L8.298 56H3.708L0.036 43.616ZM17.1618 56.144C16.1538 56.144 15.3678 55.82 14.8038 55.172C14.2398 54.524 13.9578 53.642 13.9578 52.526V46.982H17.7738V52.364C17.7738 52.64 17.8458 52.856 17.9898 53.012C18.1458 53.156 18.3438 53.228 18.5838 53.228C18.8238 53.228 19.0698 53.156 19.3218 53.012L19.5198 55.514C19.2558 55.718 18.9078 55.874 18.4758 55.982C18.0558 56.09 17.6178 56.144 17.1618 56.144ZM15.8658 45.632C15.3018 45.632 14.8218 45.458 14.4258 45.11C14.0418 44.75 13.8498 44.312 13.8498 43.796C13.8498 43.28 14.0538 42.848 14.4618 42.5C14.8698 42.152 15.3378 41.978 15.8658 41.978C16.4178 41.978 16.8918 42.158 17.2878 42.518C17.6958 42.878 17.8998 43.304 17.8998 43.796C17.8998 44.324 17.6958 44.762 17.2878 45.11C16.8798 45.458 16.4058 45.632 15.8658 45.632ZM26.23 56.144C25.234 56.144 24.346 55.946 23.566 55.55C22.798 55.142 22.198 54.59 21.766 53.894C21.334 53.186 21.118 52.388 21.118 51.5C21.118 50.588 21.34 49.778 21.784 49.07C22.228 48.362 22.828 47.816 23.584 47.432C24.34 47.048 25.18 46.856 26.104 46.856C26.992 46.856 27.748 47.054 28.372 47.45C29.008 47.834 29.482 48.362 29.794 49.034C30.106 49.694 30.262 50.438 30.262 51.266C30.262 51.482 30.25 51.638 30.226 51.734L24.826 52.436C24.97 52.856 25.204 53.162 25.528 53.354C25.852 53.534 26.278 53.624 26.806 53.624C27.622 53.624 28.504 53.414 29.452 52.994L29.902 55.406C28.786 55.898 27.562 56.144 26.23 56.144ZM27.472 50.168C27.28 49.412 26.824 49.034 26.104 49.034C25.672 49.034 25.33 49.196 25.078 49.52C24.826 49.844 24.694 50.264 24.682 50.78L27.472 50.168ZM32.0299 46.982H35.7019L36.7279 52.832L37.9699 46.982H41.0659L42.3259 52.976L43.3519 46.982H46.3039L44.4319 56H40.1299L39.1219 51.23L38.1679 56H34.0099L32.0299 46.982ZM56.8995 56.144C56.1195 56.144 55.3875 55.94 54.7035 55.532C54.0315 55.112 53.4915 54.548 53.0835 53.84C52.6755 53.12 52.4715 52.322 52.4715 51.446C52.4715 50.582 52.6755 49.802 53.0835 49.106C53.4915 48.398 54.0375 47.846 54.7215 47.45C55.4055 47.054 56.1315 46.856 56.8995 46.856C57.5235 46.856 58.0995 47.03 58.6275 47.378C59.1675 47.726 59.5755 48.248 59.8515 48.944V46.856H63.6315V56H59.8515V54.326C59.2515 55.538 58.2675 56.144 56.8995 56.144ZM58.0695 53.3C58.5495 53.3 58.9575 53.132 59.2935 52.796C59.6415 52.448 59.8275 52.04 59.8515 51.572V51.428C59.8275 50.948 59.6355 50.54 59.2755 50.204C58.9275 49.868 58.5255 49.7 58.0695 49.7C57.5655 49.7 57.1335 49.88 56.7735 50.24C56.4255 50.588 56.2515 51.008 56.2515 51.5C56.2515 52.004 56.4315 52.43 56.7915 52.778C57.1515 53.126 57.5775 53.3 58.0695 53.3ZM69.6227 56.144C68.6027 56.144 67.8107 55.826 67.2467 55.19C66.6947 54.542 66.4187 53.66 66.4187 52.544V44.138L70.2167 43.58V52.274C70.2167 52.61 70.2947 52.856 70.4507 53.012C70.6187 53.156 70.9067 53.228 71.3147 53.228C71.6147 53.228 71.9087 53.156 72.1967 53.012L72.3227 55.532C71.5187 55.94 70.6187 56.144 69.6227 56.144ZM77.4254 56.144C76.4054 56.144 75.6134 55.826 75.0494 55.19C74.4974 54.542 74.2214 53.66 74.2214 52.544V44.138L78.0194 43.58V52.274C78.0194 52.61 78.0974 52.856 78.2534 53.012C78.4214 53.156 78.7094 53.228 79.1174 53.228C79.4174 53.228 79.7114 53.156 79.9994 53.012L80.1254 55.532C79.3214 55.94 78.4214 56.144 77.4254 56.144ZM90.3956 56.144C89.6156 56.144 88.8836 55.94 88.1996 55.532C87.5276 55.112 86.9876 54.548 86.5796 53.84C86.1716 53.12 85.9676 52.322 85.9676 51.446C85.9676 50.582 86.1716 49.802 86.5796 49.106C86.9876 48.398 87.5336 47.846 88.2176 47.45C88.9016 47.054 89.6276 46.856 90.3956 46.856C91.0196 46.856 91.5956 47.03 92.1236 47.378C92.6636 47.726 93.0716 48.248 93.3476 48.944V46.856H97.1276V56H93.3476V54.326C92.7476 55.538 91.7636 56.144 90.3956 56.144ZM91.5656 53.3C92.0456 53.3 92.4536 53.132 92.7896 52.796C93.1376 52.448 93.3236 52.04 93.3476 51.572V51.428C93.3236 50.948 93.1316 50.54 92.7716 50.204C92.4236 49.868 92.0216 49.7 91.5656 49.7C91.0616 49.7 90.6296 49.88 90.2696 50.24C89.9216 50.588 89.7476 51.008 89.7476 51.5C89.7476 52.004 89.9276 52.43 90.2876 52.778C90.6476 53.126 91.0736 53.3 91.5656 53.3ZM99.9508 47.108H103.749V48.944C104.025 48.236 104.397 47.714 104.865 47.378C105.345 47.03 105.903 46.856 106.539 46.856L107.061 49.79C105.921 49.79 105.081 49.916 104.541 50.168C104.013 50.408 103.749 50.792 103.749 51.32V56H99.9508V47.108ZM112.926 56.144C111.87 56.144 111.048 55.844 110.46 55.244C109.872 54.632 109.578 53.792 109.578 52.724V49.214H108.426V46.982H109.848L111.522 43.58H113.34V46.982H115.428V49.214H113.34V52.274C113.34 52.574 113.436 52.808 113.628 52.976C113.82 53.144 114.09 53.228 114.438 53.228C114.762 53.228 115.056 53.156 115.32 53.012L115.464 55.532C115.164 55.712 114.774 55.862 114.294 55.982C113.826 56.09 113.37 56.144 112.926 56.144ZM120.974 56.144C119.966 56.144 119.18 55.82 118.616 55.172C118.052 54.524 117.77 53.642 117.77 52.526V46.982H121.586V52.364C121.586 52.64 121.658 52.856 121.802 53.012C121.958 53.156 122.156 53.228 122.396 53.228C122.636 53.228 122.882 53.156 123.134 53.012L123.332 55.514C123.068 55.718 122.72 55.874 122.288 55.982C121.868 56.09 121.43 56.144 120.974 56.144ZM119.678 45.632C119.114 45.632 118.634 45.458 118.238 45.11C117.854 44.75 117.662 44.312 117.662 43.796C117.662 43.28 117.866 42.848 118.274 42.5C118.682 42.152 119.15 41.978 119.678 41.978C120.23 41.978 120.704 42.158 121.1 42.518C121.508 42.878 121.712 43.304 121.712 43.796C121.712 44.324 121.508 44.762 121.1 45.11C120.692 45.458 120.218 45.632 119.678 45.632ZM128.494 56.144C127.234 56.144 126.13 55.958 125.182 55.586L125.596 53.444C126.46 53.756 127.3 53.912 128.116 53.912C128.716 53.912 129.016 53.744 129.016 53.408C129.016 53.24 128.926 53.102 128.746 52.994C128.578 52.886 128.254 52.79 127.774 52.706C126.778 52.514 126.058 52.19 125.614 51.734C125.182 51.278 124.966 50.63 124.966 49.79C125.014 48.842 125.392 48.116 126.1 47.612C126.808 47.108 127.774 46.856 128.998 46.856C129.622 46.856 130.156 46.898 130.6 46.982C131.056 47.054 131.47 47.18 131.842 47.36L131.464 49.502C131.116 49.37 130.732 49.268 130.312 49.196C129.904 49.124 129.562 49.088 129.286 49.088C128.878 49.088 128.596 49.13 128.44 49.214C128.284 49.298 128.206 49.412 128.206 49.556C128.206 49.82 128.506 50.006 129.106 50.114C130.198 50.306 131.014 50.642 131.554 51.122C132.094 51.602 132.364 52.256 132.364 53.084C132.364 54.032 132.028 54.782 131.356 55.334C130.696 55.874 129.742 56.144 128.494 56.144ZM138.637 56.144C137.581 56.144 136.759 55.844 136.171 55.244C135.583 54.632 135.289 53.792 135.289 52.724V49.214H134.137V46.982H135.559L137.233 43.58H139.051V46.982H141.139V49.214H139.051V52.274C139.051 52.574 139.147 52.808 139.339 52.976C139.531 53.144 139.801 53.228 140.149 53.228C140.473 53.228 140.767 53.156 141.031 53.012L141.175 55.532C140.875 55.712 140.485 55.862 140.005 55.982C139.537 56.09 139.081 56.144 138.637 56.144ZM146.631 56.144C145.371 56.144 144.267 55.958 143.319 55.586L143.733 53.444C144.597 53.756 145.437 53.912 146.253 53.912C146.853 53.912 147.153 53.744 147.153 53.408C147.153 53.24 147.063 53.102 146.883 52.994C146.715 52.886 146.391 52.79 145.911 52.706C144.915 52.514 144.195 52.19 143.751 51.734C143.319 51.278 143.103 50.63 143.103 49.79C143.151 48.842 143.529 48.116 144.237 47.612C144.945 47.108 145.911 46.856 147.135 46.856C147.759 46.856 148.293 46.898 148.737 46.982C149.193 47.054 149.607 47.18 149.979 47.36L149.601 49.502C149.253 49.37 148.869 49.268 148.449 49.196C148.041 49.124 147.699 49.088 147.423 49.088C147.015 49.088 146.733 49.13 146.577 49.214C146.421 49.298 146.343 49.412 146.343 49.556C146.343 49.82 146.643 50.006 147.243 50.114C148.335 50.306 149.151 50.642 149.691 51.122C150.231 51.602 150.501 52.256 150.501 53.084C150.501 54.032 150.165 54.782 149.493 55.334C148.833 55.874 147.879 56.144 146.631 56.144Z" fill="#D400B3"/>
</svg>
