<svg width="405" height="50" viewBox="0 0 405 50" fill="none" xmlns="http://www.w3.org/2000/svg">
<path d="M0.38 5.224H13.276C18.6147 5.224 22.74 6.264 25.652 8.344C28.5987 10.424 30.072 13.336 30.072 17.08C30.072 19.4373 29.344 21.5 27.888 23.268C26.4667 25.036 24.508 26.4053 22.012 27.376C19.5507 28.312 16.812 28.78 13.796 28.78H11.612V41H0.38V5.224ZM13.848 21.552C15.6853 21.552 17.1067 21.1707 18.112 20.408C19.1173 19.6453 19.62 18.536 19.62 17.08C19.62 15.624 19.1173 14.532 18.112 13.804C17.1413 13.076 15.72 12.712 13.848 12.712H11.612V21.448C12.3053 21.5173 13.0507 21.552 13.848 21.552ZM47.5885 41.416C44.6765 41.416 42.0765 40.844 39.7885 39.7C37.5352 38.556 35.7672 36.9787 34.4845 34.968C33.2365 32.9227 32.6125 30.5827 32.6125 27.948C32.6125 25.3133 33.2538 22.9907 34.5365 20.98C35.8192 18.9347 37.5872 17.3573 39.8405 16.248C42.1285 15.1387 44.7285 14.584 47.6405 14.584C50.5872 14.584 53.1872 15.156 55.4405 16.3C57.7285 17.4093 59.4965 18.9693 60.7445 20.98C61.9925 22.9907 62.6165 25.3133 62.6165 27.948C62.6165 30.6173 61.9752 32.9747 60.6925 35.02C59.4445 37.0307 57.6765 38.608 55.3885 39.752C53.1352 40.8613 50.5352 41.416 47.5885 41.416ZM47.6925 33.616C49.1138 33.616 50.2752 33.096 51.1765 32.056C52.1125 30.9813 52.5805 29.612 52.5805 27.948C52.5805 26.284 52.1125 24.932 51.1765 23.892C50.2752 22.8173 49.1138 22.28 47.6925 22.28C46.2712 22.28 45.0925 22.8173 44.1565 23.892C43.2552 24.932 42.8045 26.284 42.8045 27.948C42.8045 29.612 43.2552 30.9813 44.1565 32.056C45.0925 33.096 46.2712 33.616 47.6925 33.616ZM67.5141 15.312H78.4861V19.836C80.1501 16.3347 82.9754 14.584 86.9621 14.584C89.2847 14.584 91.4167 15.1733 93.3581 16.352C95.3341 17.496 96.8767 19.0907 97.9861 21.136C99.1301 23.1813 99.7021 25.4693 99.7021 28C99.7021 30.5307 99.1127 32.8187 97.9341 34.864C96.7901 36.9093 95.2301 38.5213 93.2541 39.7C91.3127 40.844 89.2327 41.416 87.0141 41.416C83.0621 41.416 80.2194 39.6653 78.4861 36.164V47.76L67.5141 49.84V15.312ZM83.6861 33.2C85.1074 33.2 86.3207 32.68 87.3261 31.64C88.3314 30.6 88.8341 29.3867 88.8341 28C88.8341 26.544 88.3141 25.3133 87.2741 24.308C86.2687 23.3027 85.0727 22.8 83.6861 22.8C82.2647 22.8 81.0514 23.3027 80.0461 24.308C79.0407 25.2787 78.5381 26.44 78.5381 27.792V28C78.5381 29.456 79.0407 30.6867 80.0461 31.692C81.0861 32.6973 82.2994 33.2 83.6861 33.2ZM118.502 41.416C115.764 41.416 113.32 40.9307 111.17 39.96C109.056 38.9893 107.409 37.62 106.23 35.852C105.052 34.084 104.462 32.0733 104.462 29.82V14.948H115.174V29.664C115.174 30.808 115.486 31.7093 116.11 32.368C116.769 32.992 117.584 33.304 118.554 33.304C119.49 33.304 120.253 32.992 120.842 32.368C121.466 31.7093 121.778 30.808 121.778 29.664V14.948H132.282V29.82C132.282 32.108 131.693 34.136 130.514 35.904C129.37 37.6373 127.758 38.9893 125.678 39.96C123.598 40.9307 121.206 41.416 118.502 41.416ZM147.475 41.416C144.528 41.416 142.24 40.4973 140.611 38.66C139.016 36.788 138.219 34.24 138.219 31.016V6.732L149.191 5.12V30.236C149.191 31.2067 149.416 31.9173 149.867 32.368C150.352 32.784 151.184 32.992 152.363 32.992C153.229 32.992 154.079 32.784 154.911 32.368L155.275 39.648C152.952 40.8267 150.352 41.416 147.475 41.416ZM170.467 41.416C168.214 41.416 166.099 40.8267 164.123 39.648C162.182 38.4347 160.622 36.8053 159.443 34.76C158.264 32.68 157.675 30.3747 157.675 27.844C157.675 25.348 158.264 23.0947 159.443 21.084C160.622 19.0387 162.199 17.444 164.175 16.3C166.151 15.156 168.248 14.584 170.467 14.584C172.27 14.584 173.934 15.0867 175.459 16.092C177.019 17.0973 178.198 18.6053 178.995 20.616V14.584H189.915V41H178.995V36.164C177.262 39.6653 174.419 41.416 170.467 41.416ZM173.847 33.2C175.234 33.2 176.412 32.7147 177.383 31.744C178.388 30.7387 178.926 29.56 178.995 28.208V27.792C178.926 26.4053 178.371 25.2267 177.331 24.256C176.326 23.2853 175.164 22.8 173.847 22.8C172.391 22.8 171.143 23.32 170.103 24.36C169.098 25.3653 168.595 26.5787 168.595 28C168.595 29.456 169.115 30.6867 170.155 31.692C171.195 32.6973 172.426 33.2 173.847 33.2ZM196.182 15.312H207.154V20.616C207.951 18.5707 209.026 17.0627 210.378 16.092C211.765 15.0867 213.377 14.584 215.214 14.584L216.722 23.06C213.429 23.06 211.002 23.424 209.442 24.152C207.917 24.8453 207.154 25.9547 207.154 27.48V41H196.182V15.312ZM242.58 41.416C240.327 41.416 238.212 40.8267 236.236 39.648C234.295 38.4347 232.735 36.8053 231.556 34.76C230.378 32.68 229.788 30.3747 229.788 27.844C229.788 25.348 230.378 23.0947 231.556 21.084C232.735 19.0387 234.312 17.444 236.288 16.3C238.264 15.156 240.362 14.584 242.58 14.584C244.383 14.584 246.047 15.0867 247.572 16.092C249.132 17.0973 250.311 18.6053 251.108 20.616V14.584H262.028V41H251.108V36.164C249.375 39.6653 246.532 41.416 242.58 41.416ZM245.96 33.2C247.347 33.2 248.526 32.7147 249.496 31.744C250.502 30.7387 251.039 29.56 251.108 28.208V27.792C251.039 26.4053 250.484 25.2267 249.444 24.256C248.439 23.2853 247.278 22.8 245.96 22.8C244.504 22.8 243.256 23.32 242.216 24.36C241.211 25.3653 240.708 26.5787 240.708 28C240.708 29.456 241.228 30.6867 242.268 31.692C243.308 32.6973 244.539 33.2 245.96 33.2ZM268.295 15.312H279.267V20.616C280.065 18.5707 281.139 17.0627 282.491 16.092C283.878 15.0867 285.49 14.584 287.327 14.584L288.835 23.06C285.542 23.06 283.115 23.424 281.555 24.152C280.03 24.8453 279.267 25.9547 279.267 27.48V41H268.295V15.312ZM303.89 41.416C300.84 41.416 298.465 40.5493 296.766 38.816C295.068 37.048 294.218 34.6213 294.218 31.536V21.396H290.89V14.948H294.998L299.834 5.12H305.086V14.948H311.118V21.396H305.086V30.236C305.086 31.1027 305.364 31.7787 305.918 32.264C306.473 32.7493 307.253 32.992 308.258 32.992C309.194 32.992 310.044 32.784 310.806 32.368L311.222 39.648C310.356 40.168 309.229 40.6013 307.842 40.948C306.49 41.26 305.173 41.416 303.89 41.416ZM325.252 41.416C322.34 41.416 320.069 40.48 318.44 38.608C316.811 36.736 315.996 34.188 315.996 30.964V14.948H327.02V30.496C327.02 31.2933 327.228 31.9173 327.644 32.368C328.095 32.784 328.667 32.992 329.36 32.992C330.053 32.992 330.764 32.784 331.492 32.368L332.064 39.596C331.301 40.1853 330.296 40.636 329.048 40.948C327.835 41.26 326.569 41.416 325.252 41.416ZM321.508 11.048C319.879 11.048 318.492 10.5453 317.348 9.54C316.239 8.5 315.684 7.23466 315.684 5.744C315.684 4.25333 316.273 3.00533 317.452 2C318.631 0.994664 319.983 0.491998 321.508 0.491998C323.103 0.491998 324.472 1.012 325.616 2.052C326.795 3.092 327.384 4.32266 327.384 5.744C327.384 7.26933 326.795 8.53467 325.616 9.54C324.437 10.5453 323.068 11.048 321.508 11.048ZM345.088 41.416C341.448 41.416 338.259 40.8787 335.52 39.804L336.716 33.616C339.212 34.5173 341.639 34.968 343.996 34.968C345.73 34.968 346.596 34.4827 346.596 33.512C346.596 33.0267 346.336 32.628 345.816 32.316C345.331 32.004 344.395 31.7267 343.008 31.484C340.131 30.9293 338.051 29.9933 336.768 28.676C335.52 27.3587 334.896 25.4867 334.896 23.06C335.035 20.3213 336.127 18.224 338.172 16.768C340.218 15.312 343.008 14.584 346.544 14.584C348.347 14.584 349.89 14.7053 351.172 14.948C352.49 15.156 353.686 15.52 354.76 16.04L353.668 22.228C352.663 21.8467 351.554 21.552 350.34 21.344C349.162 21.136 348.174 21.032 347.376 21.032C346.198 21.032 345.383 21.1533 344.932 21.396C344.482 21.6387 344.256 21.968 344.256 22.384C344.256 23.1467 345.123 23.684 346.856 23.996C350.011 24.5507 352.368 25.5213 353.928 26.908C355.488 28.2947 356.268 30.184 356.268 32.576C356.268 35.3147 355.298 37.4813 353.356 39.076C351.45 40.636 348.694 41.416 345.088 41.416ZM372.5 41.416C369.449 41.416 367.074 40.5493 365.376 38.816C363.677 37.048 362.828 34.6213 362.828 31.536V21.396H359.5V14.948H363.608L368.444 5.12H373.696V14.948H379.728V21.396H373.696V30.236C373.696 31.1027 373.973 31.7787 374.528 32.264C375.082 32.7493 375.862 32.992 376.868 32.992C377.804 32.992 378.653 32.784 379.416 32.368L379.832 39.648C378.965 40.168 377.838 40.6013 376.452 40.948C375.1 41.26 373.782 41.416 372.5 41.416ZM393.705 41.416C390.065 41.416 386.876 40.8787 384.137 39.804L385.333 33.616C387.829 34.5173 390.256 34.968 392.613 34.968C394.347 34.968 395.213 34.4827 395.213 33.512C395.213 33.0267 394.953 32.628 394.433 32.316C393.948 32.004 393.012 31.7267 391.625 31.484C388.748 30.9293 386.668 29.9933 385.385 28.676C384.137 27.3587 383.513 25.4867 383.513 23.06C383.652 20.3213 384.744 18.224 386.789 16.768C388.835 15.312 391.625 14.584 395.161 14.584C396.964 14.584 398.507 14.7053 399.789 14.948C401.107 15.156 402.303 15.52 403.377 16.04L402.285 22.228C401.28 21.8467 400.171 21.552 398.957 21.344C397.779 21.136 396.791 21.032 395.993 21.032C394.815 21.032 394 21.1533 393.549 21.396C393.099 21.6387 392.873 21.968 392.873 22.384C392.873 23.1467 393.74 23.684 395.473 23.996C398.628 24.5507 400.985 25.5213 402.545 26.908C404.105 28.2947 404.885 30.184 404.885 32.576C404.885 35.3147 403.915 37.4813 401.973 39.076C400.067 40.636 397.311 41.416 393.705 41.416Z" fill="white"/>
</svg>
