<svg width="514" height="53" viewBox="0 0 514 53" fill="none" xmlns="http://www.w3.org/2000/svg">
<path d="M7.944 13.128H0.508V5.224H27.496V13.128H20.06V41H7.944V13.128ZM30.1234 15.312H41.0954V20.616C41.8928 18.5707 42.9674 17.0627 44.3194 16.092C45.7061 15.0867 47.3181 14.584 49.1554 14.584L50.6634 23.06C47.3701 23.06 44.9434 23.424 43.3834 24.152C41.8581 24.8453 41.0954 25.9547 41.0954 27.48V41H30.1234V15.312ZM67.7985 41.416C64.9211 41.416 62.3558 40.844 60.1025 39.7C57.8838 38.5213 56.1505 36.9267 54.9025 34.916C53.6545 32.8707 53.0305 30.5653 53.0305 28C53.0305 25.3653 53.6718 23.0253 54.9545 20.98C56.2371 18.9347 57.9705 17.3573 60.1545 16.248C62.3385 15.1387 64.7651 14.584 67.4345 14.584C69.9998 14.584 72.1838 15.156 73.9865 16.3C75.8238 17.4093 77.1931 18.9347 78.0945 20.876C78.9958 22.7827 79.4465 24.932 79.4465 27.324C79.4465 27.948 79.4118 28.3987 79.3425 28.676L63.7425 30.704C64.1585 31.9173 64.8345 32.8013 65.7705 33.356C66.7065 33.876 67.9371 34.136 69.4625 34.136C71.8198 34.136 74.3678 33.5293 77.1065 32.316L78.4065 39.284C75.1825 40.7053 71.6465 41.416 67.7985 41.416ZM71.3865 24.152C70.8318 21.968 69.5145 20.876 67.4345 20.876C66.1865 20.876 65.1985 21.344 64.4705 22.28C63.7425 23.216 63.3611 24.4293 63.3265 25.92L71.3865 24.152ZM84.225 15.312H94.677V20.616C96.6877 16.5947 99.877 14.584 104.245 14.584C107.573 14.584 110.173 15.78 112.045 18.172C113.952 20.5293 114.905 23.8053 114.905 28V41H103.985V26.908C103.985 25.4173 103.656 24.2733 102.997 23.476C102.373 22.6787 101.489 22.28 100.345 22.28C99.513 22.28 98.6983 22.5573 97.901 23.112C97.1037 23.632 96.445 24.3947 95.925 25.4C95.4397 26.4053 95.197 27.5493 95.197 28.832V41H84.225V15.312ZM132.312 41.416C129.955 41.416 127.806 40.792 125.864 39.544C123.958 38.296 122.45 36.6493 121.34 34.604C120.231 32.524 119.676 30.3227 119.676 28C119.676 25.5387 120.248 23.2853 121.392 21.24C122.571 19.16 124.131 17.5307 126.072 16.352C128.048 15.1733 130.146 14.584 132.364 14.584C134.375 14.584 136.074 15 137.46 15.832C138.882 16.664 140.026 17.9987 140.892 19.836V6.732L151.864 5.12V41H140.892V36.164C139.263 39.6653 136.403 41.416 132.312 41.416ZM135.744 33.2C137.2 33.2 138.414 32.68 139.384 31.64C140.39 30.6 140.892 29.3867 140.892 28V27.792C140.892 26.44 140.372 25.2787 139.332 24.308C138.292 23.3027 137.096 22.8 135.744 22.8C134.288 22.8 133.058 23.32 132.052 24.36C131.082 25.3653 130.596 26.5787 130.596 28C130.596 29.456 131.099 30.6867 132.104 31.692C133.144 32.6973 134.358 33.2 135.744 33.2ZM167.334 41.416C164.422 41.416 162.151 40.48 160.522 38.608C158.893 36.736 158.078 34.188 158.078 30.964V14.948H169.102V30.496C169.102 31.2933 169.31 31.9173 169.726 32.368C170.177 32.784 170.749 32.992 171.442 32.992C172.135 32.992 172.846 32.784 173.574 32.368L174.146 39.596C173.383 40.1853 172.378 40.636 171.13 40.948C169.917 41.26 168.651 41.416 167.334 41.416ZM163.59 11.048C161.961 11.048 160.574 10.5453 159.43 9.54C158.321 8.5 157.766 7.23466 157.766 5.744C157.766 4.25333 158.355 3.00533 159.534 2C160.713 0.994664 162.065 0.491998 163.59 0.491998C165.185 0.491998 166.554 1.012 167.698 2.052C168.877 3.092 169.466 4.32266 169.466 5.744C169.466 7.26933 168.877 8.53467 167.698 9.54C166.519 10.5453 165.15 11.048 163.59 11.048ZM178.174 15.312H188.626V20.616C190.637 16.5947 193.826 14.584 198.194 14.584C201.522 14.584 204.122 15.78 205.994 18.172C207.901 20.5293 208.854 23.8053 208.854 28V41H197.934V26.908C197.934 25.4173 197.605 24.2733 196.946 23.476C196.322 22.6787 195.438 22.28 194.294 22.28C193.462 22.28 192.648 22.5573 191.85 23.112C191.053 23.632 190.394 24.3947 189.874 25.4C189.389 26.4053 189.146 27.5493 189.146 28.832V41H178.174V15.312ZM229.589 52.908C227.683 52.908 225.863 52.7173 224.129 52.336L224.961 44.64C226.313 44.848 227.561 44.952 228.705 44.952C230.855 44.952 232.484 44.3107 233.593 43.028C234.703 41.78 235.361 39.6653 235.569 36.684C233.524 39.5613 230.404 41 226.209 41C223.921 41 221.807 40.4107 219.865 39.232C217.959 38.0533 216.433 36.4587 215.289 34.448C214.18 32.4373 213.625 30.236 213.625 27.844C213.625 25.4173 214.18 23.1987 215.289 21.188C216.399 19.1427 217.907 17.5307 219.813 16.352C221.755 15.1733 223.869 14.584 226.157 14.584C228.272 14.584 230.109 15.1387 231.669 16.248C233.264 17.3227 234.304 18.7787 234.789 20.616V14.584H245.761V34.396C245.761 40.4627 244.375 45.056 241.601 48.176C238.863 51.3307 234.859 52.908 229.589 52.908ZM229.589 33.2C230.976 33.2 232.172 32.7147 233.177 31.744C234.183 30.7387 234.72 29.56 234.789 28.208V27.792C234.72 26.4747 234.165 25.3133 233.125 24.308C232.12 23.3027 230.941 22.8 229.589 22.8C228.168 22.8 226.955 23.32 225.949 24.36C224.944 25.3653 224.441 26.5787 224.441 28C224.441 29.4213 224.944 30.652 225.949 31.692C226.955 32.6973 228.168 33.2 229.589 33.2ZM274.117 41.416C271.066 41.416 268.692 40.5493 266.993 38.816C265.294 37.048 264.445 34.6213 264.445 31.536V21.396H261.117V14.948H265.225L270.061 5.12H275.313V14.948H281.345V21.396H275.313V30.236C275.313 31.1027 275.59 31.7787 276.145 32.264C276.7 32.7493 277.48 32.992 278.485 32.992C279.421 32.992 280.27 32.784 281.033 32.368L281.449 39.648C280.582 40.168 279.456 40.6013 278.069 40.948C276.717 41.26 275.4 41.416 274.117 41.416ZM286.327 6.732L297.299 5.12V20.304C298.061 18.4667 299.205 17.0627 300.731 16.092C302.291 15.0867 304.163 14.584 306.347 14.584C309.675 14.584 312.275 15.78 314.147 18.172C316.053 20.5293 317.007 23.8053 317.007 28V41H306.087V26.908C306.087 25.4173 305.757 24.2733 305.099 23.476C304.475 22.6787 303.591 22.28 302.447 22.28C301.615 22.28 300.8 22.5573 300.003 23.112C299.205 23.632 298.547 24.3947 298.027 25.4C297.541 26.4053 297.299 27.5493 297.299 28.832V41H286.327V6.732ZM332.178 41.416C329.266 41.416 326.995 40.48 325.366 38.608C323.736 36.736 322.922 34.188 322.922 30.964V14.948H333.946V30.496C333.946 31.2933 334.154 31.9173 334.57 32.368C335.02 32.784 335.592 32.992 336.286 32.992C336.979 32.992 337.69 32.784 338.418 32.368L338.99 39.596C338.227 40.1853 337.222 40.636 335.974 40.948C334.76 41.26 333.495 41.416 332.178 41.416ZM328.434 11.048C326.804 11.048 325.418 10.5453 324.274 9.54C323.164 8.5 322.61 7.23466 322.61 5.744C322.61 4.25333 323.199 3.00533 324.378 2C325.556 0.994664 326.908 0.491998 328.434 0.491998C330.028 0.491998 331.398 1.012 332.542 2.052C333.72 3.092 334.31 4.32266 334.31 5.744C334.31 7.26933 333.72 8.53467 332.542 9.54C331.363 10.5453 329.994 11.048 328.434 11.048ZM352.014 41.416C348.374 41.416 345.185 40.8787 342.446 39.804L343.642 33.616C346.138 34.5173 348.565 34.968 350.922 34.968C352.655 34.968 353.522 34.4827 353.522 33.512C353.522 33.0267 353.262 32.628 352.742 32.316C352.257 32.004 351.321 31.7267 349.934 31.484C347.057 30.9293 344.977 29.9933 343.694 28.676C342.446 27.3587 341.822 25.4867 341.822 23.06C341.961 20.3213 343.053 18.224 345.098 16.768C347.143 15.312 349.934 14.584 353.47 14.584C355.273 14.584 356.815 14.7053 358.098 14.948C359.415 15.156 360.611 15.52 361.686 16.04L360.594 22.228C359.589 21.8467 358.479 21.552 357.266 21.344C356.087 21.136 355.099 21.032 354.302 21.032C353.123 21.032 352.309 21.1533 351.858 21.396C351.407 21.6387 351.182 21.968 351.182 22.384C351.182 23.1467 352.049 23.684 353.782 23.996C356.937 24.5507 359.294 25.5213 360.854 26.908C362.414 28.2947 363.194 30.184 363.194 32.576C363.194 35.3147 362.223 37.4813 360.282 39.076C358.375 40.636 355.619 41.416 352.014 41.416ZM377.177 14.948H387.785L390.749 31.848L394.337 14.948H403.281L406.921 32.264L409.885 14.948H418.413L413.005 41H400.577L397.665 27.22L394.909 41H382.897L377.177 14.948ZM436.216 41.416C433.339 41.416 430.774 40.844 428.52 39.7C426.302 38.5213 424.568 36.9267 423.32 34.916C422.072 32.8707 421.448 30.5653 421.448 28C421.448 25.3653 422.09 23.0253 423.372 20.98C424.655 18.9347 426.388 17.3573 428.572 16.248C430.756 15.1387 433.183 14.584 435.852 14.584C438.418 14.584 440.602 15.156 442.404 16.3C444.242 17.4093 445.611 18.9347 446.512 20.876C447.414 22.7827 447.864 24.932 447.864 27.324C447.864 27.948 447.83 28.3987 447.76 28.676L432.16 30.704C432.576 31.9173 433.252 32.8013 434.188 33.356C435.124 33.876 436.355 34.136 437.88 34.136C440.238 34.136 442.786 33.5293 445.524 32.316L446.824 39.284C443.6 40.7053 440.064 41.416 436.216 41.416ZM439.804 24.152C439.25 21.968 437.932 20.876 435.852 20.876C434.604 20.876 433.616 21.344 432.888 22.28C432.16 23.216 431.779 24.4293 431.744 25.92L439.804 24.152ZM466.111 41.416C463.234 41.416 460.668 40.844 458.415 39.7C456.196 38.5213 454.463 36.9267 453.215 34.916C451.967 32.8707 451.343 30.5653 451.343 28C451.343 25.3653 451.984 23.0253 453.267 20.98C454.55 18.9347 456.283 17.3573 458.467 16.248C460.651 15.1387 463.078 14.584 465.747 14.584C468.312 14.584 470.496 15.156 472.299 16.3C474.136 17.4093 475.506 18.9347 476.407 20.876C477.308 22.7827 477.759 24.932 477.759 27.324C477.759 27.948 477.724 28.3987 477.655 28.676L462.055 30.704C462.471 31.9173 463.147 32.8013 464.083 33.356C465.019 33.876 466.25 34.136 467.775 34.136C470.132 34.136 472.68 33.5293 475.419 32.316L476.719 39.284C473.495 40.7053 469.959 41.416 466.111 41.416ZM469.699 24.152C469.144 21.968 467.827 20.876 465.747 20.876C464.499 20.876 463.511 21.344 462.783 22.28C462.055 23.216 461.674 24.4293 461.639 25.92L469.699 24.152ZM508.174 41.416C505.851 41.416 503.979 41.1213 502.558 40.532C501.171 39.908 500.027 38.8853 499.126 37.464C498.224 36.0427 497.427 34.0147 496.734 31.38L493.665 33.824V41H482.642L482.694 6.732L493.718 5.12L493.665 22.904L507.03 11.984L513.01 20.148L504.638 25.972C505.054 28.6067 505.643 30.444 506.406 31.484C507.203 32.524 508.364 33.044 509.89 33.044C510.514 33.044 511.259 32.94 512.126 32.732L511.086 41.26C510.046 41.364 509.075 41.416 508.174 41.416Z" fill="white"/>
</svg>
